<svg xmlns="http://www.w3.org/2000/svg" width="256" height="256"><path fill-opacity=".016" d="M0 128.004v128.004l128.25-.254 128.25-.254.254-127.75L257.008 0H0v128.004m.485.496c0 70.4.119 99.053.265 63.672.146-35.38.146-92.98 0-128C.604 29.153.485 58.1.485 128.5" fill="#1976D2" fill-rule="evenodd"/><path fill-opacity=".629" d="M111 12.663c-15.675 5.776-30.075 11.106-32 11.843-1.925.737-12.5 4.596-23.5 8.576-11 3.979-21.281 8.176-22.848 9.326-3.983 2.926-7.559 9.434-8.648 15.741A3655.288 3655.288 0 0 1 21.017 75a8374.628 8374.628 0 0 0-4 22.5c-1.065 6.05-2.661 15.05-3.545 20-2.478 13.861-4.277 24.323-5.501 32-.614 3.85-1.534 7.781-2.044 8.736-1.106 2.073-1.248 12.454-.177 12.931.413.183 1.505 1.968 2.428 3.966 1.931 4.18 7.043 8.664 65.261 57.245a829.313 829.313 0 0 1 10.391 8.859c14.279 12.408 20.957 15.736 28.59 14.246 2.642-.515 35.14-11.901 45.58-15.969 1.925-.75 16.067-5.927 31.427-11.505 30.88-11.213 32.765-12.036 36.311-15.856 4.178-4.5 5.086-7.322 8.29-25.782a8946.41 8946.41 0 0 1 5.059-28.871c1.077-6.05 3.581-20.225 5.565-31.5 1.985-11.275 3.973-22.525 4.419-25 1.466-8.147 1.06-14.019-1.297-18.739-1.704-3.411-6.461-8.008-20.25-19.567-33.416-28.011-48.98-41.084-58.171-48.86-13.17-11.142-14.53-11.841-22.853-11.75-6.319.069-9.771 1.097-35.5 10.579" fill="#1976D2" fill-rule="evenodd"/><path fill-opacity=".603" d="M112.5 23.091C96 29.174 80.925 34.757 79 35.498c-1.925.741-11.375 4.181-21 7.644-11.393 4.099-18.391 7.179-20.053 8.827-2.946 2.919-3.577 5.723-11.488 51.031-.816 4.675-2.145 12.1-2.952 16.5-.808 4.4-2.408 13.4-3.556 20-1.148 6.6-2.692 15.128-3.431 18.952-2.104 10.898-1.735 11.431 21.184 30.614 10.799 9.039 24.621 20.65 30.715 25.804a16775.38 16775.38 0 0 0 13.612 11.5c1.392 1.171 6.567 5.55 11.5 9.73 4.933 4.18 10.544 8.166 12.469 8.858 4.26 1.532 1.941 2.261 54-16.978 21.175-7.825 39.94-14.637 41.699-15.137 1.76-.5 4.46-1.566 6-2.37 1.541-.803 3.556-1.463 4.48-1.467.923-.003 3.21-1.468 5.082-3.256 3.619-3.456 3.747-3.948 9.233-35.75A5396.6 5396.6 0 0 1 230 150a4796.9 4796.9 0 0 0 3.586-20.5c.851-4.95 2.162-12.375 2.914-16.5 3.461-18.997 3.795-22.612 2.366-25.578-.751-1.559-4.332-5.33-7.958-8.379-84.253-70.846-78.565-66.317-83.741-66.682-3.926-.277-9.432 1.428-34.667 10.73M128 74.978c-5.513 1.67-41.669 20.04-43.701 22.205-2.985 3.178-4.109 11.16-4.928 35.001-.506 14.714-.384 19.816.474 19.816.635 0 1.155.659 1.155 1.465 0 2.321 3.144 3.387 7.5 2.541l4-.776L89 155c-1.925-.127-4.287-.15-5.25-.052-3.049.31-1.886-1.701 1.25-2.161 1.65-.242 3-.069 3 .386s1.575.827 3.5.827 3.5.378 3.5.839c0 .462 1.125 1.353 2.5 1.979 4.049 1.845 2.895.636-3.25-3.405-3.162-2.08-6.076-4.261-6.475-4.847-.399-.586-.515-3.991-.258-7.566 1.516-21.051 2.698-34.722 3.138-36.286.315-1.119 5.98-4.421 15.174-8.843l19.925-9.583 5.254-2.526 18.6 12.369 18.601 12.369-.605 11.5c-1.878 35.742-1.745 35.066-7.178 36.429-1.334.335-2.426 1.015-2.426 1.511 0 .495-1.354 1.198-3.009 1.562-1.655.363-2.739 1.096-2.411 1.628.371.6 1.126.529 1.99-.188 1.773-1.471 13.637-2.974 14.825-1.878.497.459-.281 1.12-1.75 1.489-2.733.686-3.673 2.447-1.306 2.447.737 0 2.761-1.562 4.498-3.471 3.083-3.387 3.182-3.796 4.128-17.043.534-7.465 1.199-13.943 1.479-14.395.28-.453.564-5.619.632-11.481.094-8.12-.247-11.222-1.433-13.031-.856-1.307-7.088-6.117-13.849-10.689C133.169 73.533 133.025 73.456 128 74.978m-12.5 29.503c-14.555 7.892-14.507 7.812-14.468 23.825.021 8.883.435 13.724 1.267 14.816 2.053 2.698 22.515 14.88 24.94 14.849 2.932-.037 23.898-11.285 25.453-13.655.682-1.039 1.451-7.591 1.798-15.316.482-10.734.321-13.854-.785-15.227-2.789-3.46-22.117-14.762-25.205-14.738-1.699.014-7.337 2.375-13 5.446m5.465 8.665c-4.106 2.224-8.027 4.506-8.715 5.071-.838.689-1.25 4.116-1.25 10.393v9.365l4.25 2.618a276.95 276.95 0 0 1 7.901 5.08l3.65 2.461 5.336-2.703c2.934-1.487 7.029-3.773 9.099-5.08l3.764-2.376v-18.924l-3.25-1.646c-1.787-.905-3.925-2.193-4.75-2.861-.825-.668-3.091-2.165-5.035-3.328l-3.535-2.113-7.465 4.043" fill="#1976D2" fill-rule="evenodd"/><path fill-opacity=".729" d="M144 12.681c-10.629 3.708-38.274 13.803-40.784 14.893-1.806.784-3.831 1.429-4.5 1.432-.669.004-2.476.664-4.017 1.467-1.54.804-4.24 1.898-6 2.433C84.469 34.191 77 36.835 74.5 37.932c-1.1.483-9.425 3.557-18.5 6.831-19.191 6.924-20.049 7.687-21.88 19.445-.625 4.011-2.034 12.242-3.132 18.292a2828.59 2828.59 0 0 0-3.463 19.5c-.808 4.675-2.4 13.675-3.539 20-1.138 6.325-2.518 14.2-3.065 17.5-.547 3.3-1.653 9.244-2.458 13.208-.805 3.964-1.463 9.381-1.463 12.037 0 4.456.368 5.183 4.75 9.387 2.613 2.506 10.375 9.261 17.25 15.011 6.875 5.749 19.474 16.282 27.998 23.405 8.525 7.124 16.625 13.916 18 15.095 13.928 11.928 19.752 16.363 22.199 16.9 2.13.468 7.022-.865 18.597-5.067 8.638-3.136 17.124-6.326 18.857-7.089 1.733-.763 3.63-1.387 4.216-1.387.586 0 2.543-.643 4.349-1.429 1.806-.787 16.559-6.254 32.784-12.149 16.225-5.896 30.289-11.399 31.254-12.229 2.018-1.738 3.304-6.025 5.256-17.533 1.494-8.805 4.687-27.011 7.132-40.66.838-4.675 2.127-12.1 2.866-16.5.739-4.4 2.337-13.4 3.552-20 3.157-17.151 3.423-21.114 1.603-23.891-.843-1.287-9.775-9.235-19.848-17.662-38.573-32.269-60.518-50.747-62.751-52.836-1.564-1.463-7.451-4.166-8.782-4.032-.43.043-1.457.314-2.282.602m-21 17.916a9945.955 9945.955 0 0 1-12 5.104c-2.924 1.233-38.65 15.617-48.5 19.528C45.819 61.85 43.497 64.575 41.393 80c-.712 5.225-2.243 16.25-3.4 24.5a6829.585 6829.585 0 0 0-3.529 25.5c-.783 5.775-1.902 13.65-2.486 17.5-1.829 12.049-1.473 18.154 1.305 22.351 2.36 3.567 68.038 55.589 74.992 59.399 5.628 3.084 12.238 2.119 25.225-3.681 1.65-.737 7.275-2.983 12.5-4.991 5.225-2.008 10.4-4.077 11.5-4.598 1.1-.52 11.61-4.782 23.356-9.469 11.746-4.688 22.567-9.238 24.046-10.112 6.162-3.64 7.801-8.585 11.569-34.899.866-6.05 2.98-20.675 4.697-32.5 1.716-11.825 3.326-25.198 3.578-29.718.713-12.834 3.89-9.588-52.188-53.314L147.617 26.52l-7.059-.198c-6.357-.178-8.101.247-17.558 4.275m1.5 10.5c-6.6 2.732-12.9 5.339-14 5.793-1.1.454-4.475 1.765-7.5 2.915-16.701 6.348-47.509 19.275-48.645 20.411-1.338 1.339-3.423 11.737-5.269 26.284-.559 4.4-1.701 12.725-2.539 18.5-3.321 22.878-4.636 31.802-5.704 38.716-.846 5.477-.827 7.886.077 10 1.374 3.211 70.615 57.585 73.99 58.103 1.816.278 17.244-5.398 29.785-10.959 2.307-1.023 4.489-1.86 4.849-1.86.36 0 2.072-.642 3.805-1.428 6.651-3.013 12.716-5.521 29.151-12.052 9.35-3.716 17.816-7.531 18.814-8.479 1.802-1.713 2.482-5.611 8.204-47.041.874-6.325 2.239-15.688 3.034-20.806.795-5.119 1.726-12.994 2.069-17.5.543-7.128.38-8.475-1.249-10.351-1.477-1.702-40.645-32.489-66.199-52.034-2.893-2.213-5.377-3.288-7.5-3.245-1.745.035-8.573 2.3-15.173 5.033m4.5 9.257c-3.901 1.512-33.639 14.652-44.5 19.663-3.85 1.776-9.025 4.104-11.5 5.173-9.664 4.176-11.916 8.284-13.602 24.81-.701 6.875-2.241 21.897-3.423 33.383-1.181 11.486-1.866 22.385-1.522 24.221.345 1.835 1.788 4.718 3.208 6.405 2.122 2.522 18.025 14.442 52.688 39.491 3.687 2.664 4.934 2.996 11.151 2.966 6.221-.03 8.058-.542 16.5-4.598 5.225-2.511 18.05-8.29 28.5-12.843 10.45-4.553 20.51-9.406 22.356-10.783 5.419-4.046 5.784-5.529 9.165-37.242 3.891-36.494 4.106-39.545 3.042-43.14-1.204-4.068-5.222-8.035-15.563-15.364-3.85-2.728-13.75-9.92-22-15.981-8.25-6.062-16.8-12.236-19-13.722-4.926-3.327-10.818-4.254-15.5-2.439M111 70.35c-12.925 5.667-26.929 11.91-31.119 13.874-8.84 4.142-8.072 2.304-10.39 24.855-5.559 54.1-5.796 47.528 1.904 52.769 2.258 1.537 13.373 9.572 24.701 17.856 11.327 8.283 21.582 15.588 22.787 16.234 2.616 1.399 3.753 1.076 15.528-4.409 4.999-2.328 17.471-7.922 27.715-12.431 10.245-4.508 19.34-8.737 20.211-9.397 1.684-1.276 2.553-6.891 5.19-33.516.799-8.077 1.913-18.928 2.474-24.115.561-5.186.787-10.163.502-11.059-.284-.896-3.895-4.078-8.024-7.07a9579.407 9579.407 0 0 1-21.243-15.473c-16.42-11.993-25.657-18.476-26.279-18.445-.252.013-11.032 4.66-23.957 10.327m17 3.347c-.825.296-11.038 5.189-22.696 10.874-15.126 7.375-21.7 11.104-22.954 13.018-1.748 2.668-3.064 14.003-4.805 41.411-.577 9.078-.422 10.941 1.144 13.754 1.267 2.277 7.663 7.194 21.311 16.383 22.906 15.422 24.165 15.831 34.151 11.082 17.358-8.252 35.521-17.325 36.945-18.454 3.388-2.685 4.643-7.249 5.295-19.265.358-6.6 1.136-16.998 1.729-23.108 1.566-16.124 2.295-15.12-23.62-32.526-20.534-13.792-22.31-14.674-26.5-13.169m-5 14.878c-3.575 1.831-12 5.938-18.721 9.127-6.722 3.189-12.416 6.284-12.653 6.877-.238.594-.999 10.408-1.692 21.81-1.214 19.996-1.191 20.794.653 22.533 3.769 3.553 33.751 23.158 34.977 22.871.687-.161 9.566-4.343 19.73-9.293l18.481-9 1.146-11c.631-6.05 1.244-16.119 1.363-22.375l.216-11.375L149 96.901c-9.625-6.518-17.95-11.806-18.5-11.753-.55.053-3.925 1.595-7.5 3.427m-6.5 14.497c-5.5 2.819-11.236 6.325-12.746 7.792-2.659 2.582-2.765 3.099-3.315 16.152-.427 10.144-.243 14.081.746 15.896 1.458 2.674 20.803 14.936 24.838 15.743 3.077.615 23.281-9.305 26.593-13.057 1.795-2.034 2.224-4.222 2.835-14.468 1.001-16.764.841-17.233-7.785-22.769-3.941-2.53-8.791-5.689-10.778-7.021-6.344-4.252-9.179-4.011-20.388 1.732m4.592 10.943c-4.075 2.146-7.733 4.258-8.129 4.693-.397.436-.95 4.719-1.23 9.518l-.509 8.725 7.901 5.069 7.901 5.068 7.886-4.103c8.908-4.634 9.055-4.893 9.073-15.985l.013-7.5-4.749-2.804c-2.612-1.543-6.099-3.654-7.749-4.693l-3-1.889-7.408 3.901" fill="#1976D2" fill-rule="evenodd"/></svg>