<?xml version="1.0" encoding="utf-8"?>
<svg
  viewBox="302.552 293.794 194.895 212.412"
  width="200"
  height="200"
  xmlns="http://www.w3.org/2000/svg"
>
  <defs>
    <linearGradient x1="50%" y1="0%" x2="50%" y2="100%" id="gggyrate-grad">
      <stop stop-color="hsl(206, 75%, 49%)" stop-opacity="1" offset="0" />
      <stop stop-color="hsl(331, 90%, 56%)" stop-opacity="1" offset="1" />
    </linearGradient>
  </defs>
  <g stroke-width="8" stroke="url(#gggyrate-grad)" fill="none">
    <path
      d="M393.64915589422213 308.4036773315055C397.57905822687746 306.1351558169216 402.42094177312254 306.1351558169216 406.35084410577787 308.4043124159161L476.1491611659189 348.7023235203083C480.0790634985742 350.9708450348922 482.50000527169675 355.1643073979373 482.50000527169675 359.7019855115156V440.2980077203001C482.50000527169675 444.8356858338784 480.0790634985742 449.02914819692353 476.1491611659189 451.298304795918L406.35084410577787 491.5963159003103C402.42094177312254 493.8648374148941 397.57905822687746 493.8648374148941 393.64915589422213 491.5956808158997L323.8508388340811 451.2976697115074C319.9209365014258 449.02914819692353 317.49999472830325 444.8356858338784 317.49999472830325 440.2980077203001V359.7019855115156C317.49999472830325 355.1643073979373 319.9209365014258 350.9708450348922 323.8508388340811 348.7016884358978L393.64915589422213 308.4036773315055Z "
      transform="rotate(10, 400, 400)"
      opacity="1"
      fill="#06083d"
    />
    <path
      d="M393.64915589422213 308.4036773315055C397.57905822687746 306.1351558169216 402.42094177312254 306.1351558169216 406.35084410577787 308.4043124159161L476.1491611659189 348.7023235203083C480.0790634985742 350.9708450348922 482.50000527169675 355.1643073979373 482.50000527169675 359.7019855115156V440.2980077203001C482.50000527169675 444.8356858338784 480.0790634985742 449.02914819692353 476.1491611659189 451.298304795918L406.35084410577787 491.5963159003103C402.42094177312254 493.8648374148941 397.57905822687746 493.8648374148941 393.64915589422213 491.5956808158997L323.8508388340811 451.2976697115074C319.9209365014258 449.02914819692353 317.49999472830325 444.8356858338784 317.49999472830325 440.2980077203001V359.7019855115156C317.49999472830325 355.1643073979373 319.9209365014258 350.9708450348922 323.8508388340811 348.7016884358978L393.64915589422213 308.4036773315055Z "
      transform="rotate(10, 400, 400)"
      opacity="0.05"
    />
    <path
      d="M394.9193247153777 326.72294644284113C398.06324658150197 324.90812923117403 401.93675341849803 324.90812923117403 405.0806752846223 326.7234545103696L460.91932893273514 358.9618633938834C464.06325079885937 360.7766806055505 466.0000042173574 364.13145049598654 466.0000042173574 367.7615929868492V432.23841075387685C466.0000042173574 435.8685532447395 464.06325079885937 439.2233231351756 460.91932893273514 441.0386484143711L405.0806752846223 473.27705729788494C401.93675341849803 475.091874509552 398.06324658150197 475.091874509552 394.9193247153777 473.2765492303565L339.08067106726486 441.0381403468427C335.93674920114063 439.2233231351756 333.9999957826426 435.8685532447395 333.9999957826426 432.23841075387685V367.7615929868492C333.9999957826426 364.13145049598654 335.93674920114063 360.7766806055505 339.08067106726486 358.9613553263549L394.9193247153777 326.72294644284113Z "
      transform="rotate(8, 400, 400)"
      opacity="0.29"
    />
    <path
      d="M396.1894935365333 345.0422155541767C398.5474349361265 343.68110264542645 401.4525650638735 343.68110264542645 403.8105064634667 345.0425966048231L445.68949669955134 369.2214032674584C448.04743809914453 370.58251617620874 449.50000316301805 373.09859359403583 449.50000316301805 375.8212004621828V424.1788137874535C449.50000316301805 426.90142065560053 448.04743809914453 429.41749807342757 445.68949669955134 430.77899203282425L403.8105064634667 454.9577986954596C401.4525650638735 456.3189116042099 398.5474349361265 456.3189116042099 396.1894935365333 454.9574176448133L354.31050330044866 430.7786109821779C351.95256190085547 429.41749807342757 350.49999683698195 426.90142065560053 350.49999683698195 424.1788137874535V375.8212004621828C350.49999683698195 373.09859359403583 351.95256190085547 370.58251617620874 354.31050330044866 369.2210222168121L396.1894935365333 345.0422155541767Z "
      transform="rotate(6, 400, 400)"
      opacity="0.53"
    />
    <path
      d="M397.45966235768884 363.3614694067233C399.031623290751 362.45406080088975 400.968376709249 362.45406080088975 402.54033764231116 363.3617234404875L430.45966446636754 379.48092788224443C432.0316253994297 380.388336488078 433.0000021086787 382.065721433296 433.0000021086787 383.88079267872735V416.11920156224113C433.0000021086787 417.93427280767247 432.0316253994297 419.61165775289055 430.45966446636754 420.5193203924883L402.54033764231116 436.63852483424523C400.968376709249 437.5459334400787 399.031623290751 437.5459334400787 397.45966235768884 436.638270800481L369.54033553363246 420.51906635872405C367.9683746005703 419.61165775289055 366.9999978913213 417.93427280767247 366.9999978913213 416.11920156224113V383.88079267872735C366.9999978913213 382.065721433296 367.9683746005703 380.388336488078 369.54033553363246 379.4806738484802L397.45966235768884 363.3614694067233Z "
      transform="rotate(4, 400, 400)"
      opacity="0.76"
    />
    <path
      d="M398.72983117884445 381.6807385180589C399.5158116453755 381.2270342151421 400.4841883546245 381.2270342151421 401.27016882115555 381.68086553494106L415.2298322331838 389.74046775581945C416.01581269971484 390.1941720587362 416.50000105433935 391.0328645313453 416.50000105433935 391.9404001540609V408.05960459581786C416.50000105433935 408.9671402185335 416.01581269971484 409.80583269114254 415.2298322331838 410.25966401094144L401.27016882115555 418.3192662318199C400.4841883546245 418.77297053473666 399.5158116453755 418.77297053473666 398.72983117884445 418.31913921493776L384.7701677668162 410.2595369940593C383.98418730028516 409.80583269114254 383.49999894566065 408.9671402185335 383.49999894566065 408.05960459581786V391.9404001540609C383.49999894566065 391.0328645313453 383.98418730028516 390.1941720587362 384.7701677668162 389.7403407389374L398.72983117884445 381.6807385180589Z "
      transform="rotate(2, 400, 400)"
      opacity="1.00"
    />
  </g>
</svg>
