<svg xmlns="http://www.w3.org/2000/svg" version="1.1" xmlns:xlink="http://www.w3.org/1999/xlink" xmlns:svgjs="http://svgjs.dev/svgjs" viewBox="0 0 800 800"><defs><linearGradient x1="50%" y1="0%" x2="50%" y2="100%" id="gggyrate-grad"><stop stop-color="hsl(184, 74%, 44%)" stop-opacity="1" offset="0%"></stop><stop stop-color="hsl(272, 99%, 54%)" stop-opacity="1" offset="100%"></stop></linearGradient></defs><g stroke-width="5" stroke="url(#gggyrate-grad)" fill="none"><path d="M316.16879676857593 -809.0714866899478C368.0435075596263 -839.0159706824547 431.9563703700612 -839.0159706824547 483.83108116111157 -809.0631035757282L1405.1688663549735 -277.1293569977503C1457.0435771460234 -247.1848730052435 1489.000008551241 -191.83116981304772 1489.000008551241 -131.93381871381416V931.9336744421414C1489.000008551241 991.8310255413753 1457.0435771460234 1047.1847287335713 1405.1688663549735 1077.1375958402973L483.83108116111157 1609.071342418275C431.9563703700612 1639.0158264107818 368.0435075596263 1639.0158264107818 316.16879676857593 1609.0629593040553L-605.1689884252858 1077.1292127260776C-657.0436992163361 1047.1847287335713 -689.0001306215536 991.8310255413753 -689.0001306215536 931.9336744421414V-131.93381871381416C-689.0001306215536 -191.83116981304772 -657.0436992163361 -247.1848730052435 -605.1689884252858 -277.13774011196983L316.16879676857593 -809.0714866899478Z " transform="rotate(44, 400, 400)" opacity="0.49"></path><path d="M319.97930323204264 -754.1136488383629C369.4960726234999 -782.6970199221194 430.5038053061876 -782.6970199221194 480.02057469764486 -754.1056467747895L1359.4793696554216 -246.35070685944697C1408.9961390468789 -217.7673357756904 1439.5000053882227 -164.92971000132184 1439.5000053882227 -107.75496577023512V907.7549140604501C1439.5000053882227 964.9296582915365 1408.9961390468789 1017.7672840659054 1359.4793696554216 1046.3586572132353L480.02057469764486 1554.1135971285776C430.5038053061876 1582.696968212334 369.4960726234999 1582.696968212334 319.97930323204264 1554.1055950650043L-559.4794917257344 1046.350655149662C-608.9962611171916 1017.7672840659054 -639.5001274585354 964.9296582915365 -639.5001274585354 907.7549140604501V-107.75496577023512C-639.5001274585354 -164.92971000132184 -608.9962611171916 -217.7673357756904 -559.4794917257344 -246.35870892302L319.97930323204264 -754.1136488383629Z " transform="rotate(42, 400, 400)" opacity="0.83"></path><path d="M323.78980969550935 -699.1559177983013C370.9486376873733 -726.3781759733075 429.0512402423142 -726.3781759733075 476.21006823417815 -699.1482967853743L1313.7898729558706 -215.57216353266722C1360.9487009477343 -188.34990535766087 1390.0000022252052 -138.0283570011194 1390.0000022252052 -83.57621963817962V883.5760468672347C1390.0000022252052 938.0281842301742 1360.9487009477343 988.3497325867158 1313.7898729558706 1015.5796117746488L476.21006823417815 1499.1557450273563C429.0512402423142 1526.3780032023624 370.9486376873733 1526.3780032023624 323.78980969550935 1499.1481240144294L-513.7899950261831 1015.5719907617222C-560.948823018047 988.3497325867158 -590.0001242955175 938.0281842301742 -590.0001242955175 883.5760468672347V-83.57621963817962C-590.0001242955175 -138.0283570011194 -560.948823018047 -188.34990535766087 -513.7899950261831 -215.57978454559395L323.78980969550935 -699.1559177983013Z " transform="rotate(40, 400, 400)" opacity="0.08"></path><path d="M327.60043822928856 -644.1980646879272C372.40132482155923 -670.0592099541832 427.59879724875327 -670.0592099541832 472.39968384102394 -644.1908247256466L1268.100498326632 -184.79349813557485C1312.9013849189023 -158.93235286931895 1340.5001211324993 -111.12688193060444 1340.5001211324993 -59.39735143581174V859.3973017443318C1340.5001211324993 911.1268322391245 1312.9013849189023 958.932303177839 1268.100498326632 984.8006884063752L472.39968384102394 1444.1980149964475C427.59879724875327 1470.0591602627028 372.40132482155923 1470.0591602627028 327.60043822928856 1444.1907750341666L-468.10037625631924 984.7934484440948C-512.90126284859 958.932303177839 -540.4999990621868 911.1268322391245 -540.4999990621868 859.3973017443318V-59.39735143581174C-540.4999990621868 -111.12688193060444 -512.90126284859 -158.93235286931895 -468.10037625631924 -184.8007380978553L327.60043822928856 -644.1980646879272Z " transform="rotate(38, 400, 400)" opacity="0.79"></path><path d="M331.41094469275527 -589.240150542397C373.85388988543286 -613.7401828999026 426.14623218487964 -613.7401828999026 468.58917737755723 -589.2332916307627L1222.4110016270804 -154.01477170332623C1264.853946819758 -129.51473934582066 1291.0001179694814 -84.22534582493324 1291.0001179694814 -35.2184221982875V835.2186176565854C1291.0001179694814 884.2255412832312 1264.853946819758 929.5149348041184 1222.4110016270804 954.0218260732581L468.58917737755723 1389.2403460006944C426.14623218487964 1413.7403783582004 373.85388988543286 1413.7403783582004 331.41094469275527 1389.2334870890604L-422.4108795567679 954.0149671616241C-464.8538247494455 929.5149348041184 -490.9999958991688 884.2255412832312 -490.9999958991688 835.2186176565854V-35.2184221982875C-490.9999958991688 -84.22534582493324 -464.8538247494455 -129.51473934582066 -422.4108795567679 -154.02163061496026L331.41094469275527 -589.240150542397Z " transform="rotate(36, 400, 400)" opacity="0.11"></path><path d="M335.2213901210657 -534.2824195023354C375.30639391415025 -557.4213389510908 424.69360608584975 -557.4213389510908 464.7786098789343 -534.2759416413475L1176.7214438923727 -123.23622837654648C1216.8064476854572 -100.09730892779112 1241.500053771307 -57.323992824730794 1241.500053771307 -11.039676066232005V811.0397504633702C1241.500053771307 857.324067221869 1216.8064476854572 900.0973833249293 1176.7214438923727 923.2427806346723L464.7786098789343 1334.2824938994736C424.69360608584975 1357.4214133482287 375.30639391415025 1357.4214133482287 335.2213901210657 1334.2760160384855L-376.7214438923728 923.2363027736844C-416.8064476854572 900.0973833249293 -441.500053771307 857.324067221869 -441.500053771307 811.0397504633702V-11.039676066232005C-441.500053771307 -57.323992824730794 -416.8064476854572 -100.09730892779112 -376.7214438923728 -123.2427062375341L335.2213901210657 -534.2824195023354Z " transform="rotate(34, 400, 400)" opacity="0.55"></path><path d="M339.03189658453255 -479.3246274271176C376.75895897802366 -501.1024339671226 423.24104102197634 -501.1024339671226 460.96810341546734 -479.318530616776L1131.0319471928215 -92.45762401461025C1168.7590095863127 -70.67981747460533 1192.000050608289 -30.422578789371983 1192.000050608289 13.139131100979625V786.860944305311C1192.000050608289 830.4226541956627 1168.7590095863127 870.679892880896 1131.0319471928215 892.4637962312424L460.96810341546734 1279.324702833408C423.24104102197634 1301.1025093734133 376.75895897802366 1301.1025093734133 339.03189658453255 1279.3186060230669L-331.03194719282146 892.457699420901C-368.7590095863127 870.679892880896 -392.000050608289 830.4226541956627 -392.000050608289 786.860944305311V13.139131100979625C-392.000050608289 -30.422578789371983 -368.7590095863127 -70.67981747460533 -331.03194719282146 -92.46372082495168L339.03189658453255 -479.3246274271176Z " transform="rotate(32, 400, 400)" opacity="0.51"></path><path d="M342.84240304799926 -424.3669116458451C378.2115240418973 -444.7836052770998 421.7884759581027 -444.7836052770998 457.15759695200086 -424.3611958861499L1085.3424504932702 -61.679095946619555C1120.7115714871682 -41.26240231536485 1142.5000474452709 -3.5212410479587106 1142.5000474452709 37.31786197424617V762.6820618533068C1142.5000474452709 803.5211648755117 1120.7115714871682 841.2623261429178 1085.3424504932702 861.6847355338675L457.15759695200086 1224.3668354733977C421.7884759581027 1244.7835291046526 378.2115240418973 1244.7835291046526 342.84240304799926 1224.361119713703L-285.3424504932701 861.6790197741725C-320.7115714871681 841.2623261429178 -342.50004744527087 803.5211648755117 -342.50004744527087 762.6820618533068V37.31786197424617C-342.50004744527087 -3.5212410479587106 -320.7115714871681 -41.26240231536485 -285.3424504932701 -61.684811706314576L342.84240304799926 -424.3669116458451Z " transform="rotate(30, 400, 400)" opacity="0.57"></path><path d="M346.65287899388784 -369.40910431183823C379.6640585881926 -388.46468503434266 420.3358803766512 -388.46468503434266 453.3470599709559 -369.4037696027894L1039.6529232761407 -30.900476325894374C1072.6641028704455 -11.844895603389887 1093.0000137646748 23.380188246189164 1093.0000137646748 61.49668440024698V738.5032709540369C1093.0000137646748 776.6197671080947 1072.6641028704455 811.8448509576738 1039.6529232761407 830.905766389227L453.3470599709559 1169.409059666122C420.3358803766512 1188.4646403886263 379.6640585881926 1188.4646403886263 346.65287899388784 1169.403724957073L-239.6529843112969 830.9004316801781C-272.6641639056017 811.8448509576738 -293.00007479983094 776.6197671080947 -293.00007479983094 738.5032709540369V61.49668440024698C-293.00007479983094 23.380188246189164 -272.6641639056017 -11.844895603389887 -239.6529843112969 -30.9058110349431L346.65287899388784 -369.40910431183823Z " transform="rotate(28, 400, 400)" opacity="0.59"></path><path d="M350.46338545735455 -314.4513274954095C381.1166236520661 -332.1457953091636 418.88331531277765 -332.1457953091636 449.5365535074892 -314.446373837007L993.9634265765892 -0.12188722274731845C1024.616664771301 17.572580591006727 1043.5000106016566 50.281587022758686 1043.5000106016566 85.67547630866954V714.3244495371887C1043.5000106016566 749.7183388230994 1024.616664771301 782.4273452548516 993.9634265765892 800.1267667270081L449.5365535074892 1114.4512533412676C418.88331531277765 1132.1457211550216 381.1166236520661 1132.1457211550216 350.46338545735455 1114.4462996828654L-193.96348761174556 800.1218130686057C-224.61672580645717 782.4273452548516 -243.5000716368129 749.7183388230994 -243.5000716368129 714.3244495371887V85.67547630866954C-243.5000716368129 50.281587022758686 -224.61672580645717 17.572580591006727 -193.96348761174556 -0.12684088114974656L350.46338545735455 -314.4513274954095Z " transform="rotate(26, 400, 400)" opacity="0.87"></path><path d="M354.27389192082126 -259.49353542019173C382.5691887159396 -275.82689032519545 417.43075024890413 -275.82689032519545 445.7260470440225 -259.48896281243555L948.273929877038 30.656717139188686C976.5692266721564 46.990072044192516 994.0000074386385 77.1830010581175 994.0000074386385 109.85428347588129V690.14564337913C994.0000074386385 722.8169257968937 976.5692266721564 753.0098548108185 948.273929877038 769.3477823235785L445.7260470440225 1059.4934622752025C417.43075024890413 1075.8268171802065 382.5691887159396 1075.8268171802065 354.27389192082126 1059.4888896674468L-148.27399091219422 769.3432097158222C-176.56928770731264 753.0098548108185 -194.00006847379484 722.8169257968937 -194.00006847379484 690.14564337913V109.85428347588129C-194.00006847379484 77.1830010581175 -176.56928770731264 46.990072044192516 -148.27399091219422 30.65214453143267L354.27389192082126 -259.49353542019173Z " transform="rotate(24, 400, 400)" opacity="0.88"></path><path d="M358.08439838428797 -204.53569756860674C384.02175377981314 -219.50793956486018 415.9781851850306 -219.50793956486018 441.9155405805558 -204.5315060114969L902.5844331774867 61.435367277492105C928.5217885730117 76.40760927374549 944.5000042756205 104.08446086984327 944.5000042756205 134.0331364194601V665.966882997438C944.5000042756205 695.9155585470548 928.5217885730117 723.5924101431528 902.5844331774867 738.5688436965158L441.9155405805558 1004.5357169855047C415.9781851850306 1019.5079589817581 384.02175377981314 1019.5079589817581 358.08439838428797 1004.5315254283948L-102.58449421264288 738.564652139406C-128.52184960816805 723.5924101431528 -144.5000653107768 695.9155585470548 -144.5000653107768 665.966882997438V134.0331364194601C-144.5000653107768 104.08446086984327 -128.52184960816805 76.40760927374549 -102.58449421264288 61.43117572038227L358.08439838428797 -204.53569756860674Z " transform="rotate(22, 400, 400)" opacity="0.52"></path><path d="M361.8949048477547 -149.57789023459986C385.47431884368666 -163.189019322103 414.5256201211571 -163.189019322103 438.1050341170891 -149.57407972813638L856.8949364779353 92.21398689821717C880.4743504738672 105.82511598572034 895.0000011126026 130.98589016399114 895.0000011126026 158.2119588454609V641.7880920981681C895.0000011126026 669.0141607796379 880.4743504738672 694.1749349579086 856.8949364779353 707.7898745518751L438.1050341170891 949.5779411782289C414.5256201211571 963.189070265732 385.47431884368666 963.189070265732 361.8949048477547 949.5741306717655L-56.89499751309154 707.7860640454119C-80.47441150902353 694.1749349579086 -95.00006214775874 669.0141607796379 -95.00006214775874 641.7880920981681V158.2119588454609C-95.00006214775874 130.98589016399114 -80.47441150902353 105.82511598572034 -56.89499751309154 92.2101763917538L361.8949048477547 -149.57789023459986Z " transform="rotate(20, 400, 400)" opacity="0.17"></path><path d="M365.7054113112214 -94.62009815938205C386.9268839075602 -106.8701143381349 413.07305505728357 -106.8701143381349 434.29452765362237 -94.61666870356493L811.2054397783841 122.99259126015329C832.4269123747226 135.24260743890608 845.4999979495844 157.88730419934973 845.4999979495844 182.39076601267266V617.6092859401091C845.4999979495844 642.112747753432 832.4269123747226 664.7574445138756 811.2054397783841 677.0108901484455L434.29452765362237 894.6201501121636C413.07305505728357 906.8701662909166 386.9268839075602 906.8701662909166 365.7054113112214 894.6167206563466L-11.205500813540198 677.0074606926285C-32.426973409879 664.7574445138756 -45.50005898474063 642.112747753432 -45.50005898474063 617.6092859401091V182.39076601267266C-45.50005898474063 157.88730419934973 -32.426973409879 135.24260743890608 -11.205500813540198 122.98916180433628L365.7054113112214 -94.62009815938205Z " transform="rotate(18, 400, 400)" opacity="0.88"></path><path d="M369.5159177746882 -39.662321342953305C388.3794489714337 -50.55122461295582 411.62048999341005 -50.55122461295582 430.48402119015554 -39.65927293778253L765.5159430788326 153.77118036330035C784.3794742755781 164.6600836333028 795.9999947865663 184.78870297591948 795.9999947865663 206.56955792109528V593.430464523261C795.9999947865663 615.2113194684368 784.3794742755781 635.3399388110535 765.5159430788326 646.2318904862267L430.48402119015554 839.6623437873095C411.62048999341005 850.5512470573121 388.3794489714337 850.5512470573121 369.5159177746882 839.6592953821389L34.483995886011144 646.228842081056C15.620464689265532 635.3399388110535 3.999944178277417 615.2113194684368 3.999944178277417 593.430464523261V206.56955792109528C3.999944178277417 184.78870297591948 15.620464689265532 164.6600836333028 34.483995886011144 153.76813195812963L369.5159177746882 -39.662321342953305Z " transform="rotate(16, 400, 400)" opacity="0.84"></path><path d="M373.32648527331116 15.295470732264448C389.8320750704635 5.76768037101229 410.1679859646928 5.76768037101229 426.6735757618451 15.298138086788924L719.8265074144375 184.5497847252364C736.3320972115899 194.07757508648865 746.5000526587046 211.69011701127818 746.5000526587046 230.74836508830708V569.251658365202C746.5000526587046 588.309906442231 736.3320972115899 605.9224483670205 719.8265074144375 615.4529060827971L426.6735757618451 784.7045527212445C410.1679859646928 794.2323430824968 389.8320750704635 794.2323430824968 373.32648527331116 784.70188536672L80.17355362071874 615.4502387282727C63.66796382356631 605.9224483670205 53.50000837645172 588.309906442231 53.50000837645172 569.251658365202V230.74836508830708C53.50000837645172 211.69011701127818 63.66796382356631 194.07757508648865 80.17355362071874 184.54711737071204L373.32648527331116 15.295470732264448Z " transform="rotate(14, 400, 400)" opacity="0.24"></path><path d="M377.1369917367779 70.25326280748226C391.284640134337 62.0865853549804 408.71542090081925 62.0865853549804 422.8630692983784 70.25554911136038L674.1370107148862 215.32838908717247C688.2846591124454 223.49506653967438 697.0000494956864 238.59153104663687 697.0000494956864 254.92717225551877V545.0728522071431C697.0000494956864 561.408493416025 688.2846591124454 576.5049579229874 674.1370107148862 584.6739216793674L422.8630692983784 729.7467616551794C408.71542090081925 737.9134391076814 391.284640134337 737.9134391076814 377.1369917367779 729.7444753513015L125.86305032027008 584.6716353754892C111.7154019227109 576.5049579229874 103.00001153946977 561.408493416025 103.00001153946977 545.0728522071431V254.92717225551877C103.00001153946977 238.59153104663687 111.7154019227109 223.49506653967438 125.86305032027008 215.32610278329446L377.1369917367779 70.25326280748226Z " transform="rotate(12, 400, 400)" opacity="0.29"></path><path d="M380.94748294145546 125.21105488270007C392.73718993942146 118.40549033894851 407.26284057815667 118.40549033894851 419.0525475761226 125.21296013593178L628.4474987565458 246.1069934491086C640.2372057545117 252.91255799286017 647.5000310738794 265.4929450819956 647.5000310738794 279.10597942273046V520.8940460490841C647.5000310738794 534.507080389819 640.2372057545117 547.0874674789543 628.4474987565458 553.8949372759375L419.0525475761226 674.7889705891145C407.26284057815667 681.594535132866 392.73718993942146 681.594535132866 380.94748294145546 674.7870653358827L171.55253176103236 553.8930320227059C159.76282476306636 547.0874674789543 152.49999944369875 534.507080389819 152.49999944369875 520.8940460490841V279.10597942273046C152.49999944369875 265.4929450819956 159.76282476306636 252.91255799286017 171.55253176103236 246.10508819587687L380.94748294145546 125.21105488270007Z " transform="rotate(10, 400, 400)" opacity="0.66"></path><path d="M384.75797414613317 180.16884695791788C394.1897397445059 174.72439532291662 405.8102602554941 174.72439532291662 415.24202585386683 180.17037116050324L582.7579867982054 276.8855978110447C592.1897523965781 282.3300494460459 598.0000126520722 292.39435911735427 598.0000126520722 303.2847865899422V496.715239891025C598.0000126520722 507.60566736361295 592.1897523965781 517.6699770349212 582.7579867982054 523.1159528725079L415.24202585386683 619.8311795230493C405.8102602554941 625.2756311580506 394.1897397445059 625.2756311580506 384.75797414613317 619.829655320464L217.24201320179463 523.1144286699225C207.81024760342183 517.6699770349212 201.99998734792774 507.60566736361295 201.99998734792774 496.715239891025V303.2847865899422C201.99998734792774 292.39435911735427 207.81024760342183 282.3300494460459 217.24201320179463 276.88407360845935L384.75797414613317 180.16884695791788Z " transform="rotate(8, 400, 400)" opacity="0.24"></path><path d="M388.5684806095999 235.12662377434663C395.64230480837944 231.04328504809567 404.35769519162056 231.04328504809567 411.4315193904001 235.12776692628563L537.068490098654 307.6641869141917C544.1423142974336 311.74752564044263 548.5000094890542 319.2957578939239 548.5000094890542 327.4635784983649V472.536418474177C548.5000094890542 480.70423907861795 544.1423142974336 488.25247133209916 537.068490098654 492.33695321028915L411.4315193904001 564.8733731981952C404.35769519162056 568.9567119244462 395.64230480837944 568.9567119244462 388.5684806095999 564.8722300462562L262.931509901346 492.33581005835003C255.85768570256636 488.25247133209916 251.49999051094585 480.70423907861795 251.49999051094585 472.536418474177V327.4635784983649C251.49999051094585 319.2957578939239 255.85768570256636 311.74752564044263 262.931509901346 307.6630437622527L388.5684806095999 235.12662377434663Z " transform="rotate(6, 400, 400)" opacity="0.71"></path><path d="M392.3789870730666 290.08443110835344C397.09486987225296 287.36220529085284 402.90513012774704 287.36220529085284 407.6210129269334 290.08519320964615L491.3789933991027 338.4428065349169C496.09487619828906 341.1650323524175 499.0000063260361 346.19718718807167 499.0000063260361 351.64240092436563V448.35762757490704C499.0000063260361 453.802841311201 496.09487619828906 458.83499614685513 491.3789933991027 461.5579840656485L407.6210129269334 509.9155973909192C402.90513012774704 512.6378232084198 397.09486987225296 512.6378232084198 392.3789870730666 509.9148352896265L308.6210066008973 461.5572219643558C303.90512380171094 458.83499614685513 300.9999936739639 453.802841311201 300.9999936739639 448.35762757490704V351.64240092436563C300.9999936739639 346.19718718807167 303.90512380171094 341.1650323524175 308.6210066008973 338.4420444336242L392.3789870730666 290.08443110835344Z " transform="rotate(4, 400, 400)" opacity="0.81"></path><path d="M396.1894935365333 345.0422155541767C398.5474349361265 343.68110264542645 401.4525650638735 343.68110264542645 403.8105064634667 345.0425966048231L445.68949669955134 369.2214032674584C448.04743809914453 370.58251617620874 449.50000316301805 373.09859359403583 449.50000316301805 375.8212004621828V424.1788137874535C449.50000316301805 426.90142065560053 448.04743809914453 429.41749807342757 445.68949669955134 430.77899203282425L403.8105064634667 454.9577986954596C401.4525650638735 456.3189116042099 398.5474349361265 456.3189116042099 396.1894935365333 454.9574176448133L354.31050330044866 430.7786109821779C351.95256190085547 429.41749807342757 350.49999683698195 426.90142065560053 350.49999683698195 424.1788137874535V375.8212004621828C350.49999683698195 373.09859359403583 351.95256190085547 370.58251617620874 354.31050330044866 369.2210222168121L396.1894935365333 345.0422155541767Z " transform="rotate(2, 400, 400)" opacity="0.68"></path></g></svg>